<svg xmlns="http://www.w3.org/2000/svg" viewBox="0 0 24 24" fill="none" stroke="currentColor" stroke-width="2" stroke-linecap="round" stroke-linejoin="round" class="w-6 h-6 text-primary-500">
  <path d="M6 11h4M8 9v4M15 12h.01M18 12h.01M17.32 5H6.68a4 4 0 00-3.978 3.59c-.006.052-.01.104-.01.157v6.84c0 1.18.91 2.16 2.09 2.24a2.267 2.267 0 002.38-1.9l1.09-5.007a.163.163 0 01.15-.13h7.71c.071 0 .136.043.15.13l1.09 5.007a2.267 2.267 0 002.38 1.9c1.18-.08 2.09-1.06 2.09-2.24v-6.84c0-.053-.004-.105-.01-.157A4 4 0 0017.32 5z"/>
</svg> 